<svg xmlns="http://www.w3.org/2000/svg" version="1.1" xmlns:xlink="http://www.w3.org/1999/xlink" width="512" height="512" x="0" y="0" viewBox="0 0 128 128" style="enable-background:new 0 0 512 512" xml:space="preserve" class=""><g><g data-name="Glyph"><circle cx="64" cy="70.5" r="10.5" fill="#cecfd1" opacity="1" data-original="#000000" class=""></circle><circle cx="28.5" cy="75.5" r="10.5" fill="#cecfd1" opacity="1" data-original="#000000" class=""></circle><circle cx="99.5" cy="75.5" r="10.5" fill="#cecfd1" opacity="1" data-original="#000000" class=""></circle><path d="M79.58 55.04a1.507 1.507 0 0 0 .79 2.82 39.471 39.471 0 0 0 4.4-.48l13.16 3.59c3.479 1.1 6.982-2.873 5.3-6.18a17.464 17.464 0 0 1-1.61-5.52 19.921 19.921 0 0 0 6.47-14.29c0-6.71-3.78-13.06-10.38-17.42a1.511 1.511 0 0 0-2.22 1.81 25.207 25.207 0 0 1 1.86 9.48c0 10.49-6.64 20.28-17.77 26.19Z" fill="#cecfd1" opacity="1" data-original="#000000" class=""></path><path d="M57.13.25c-20.52 0-37.22 12.83-37.22 28.6 0 6.52 2.9 12.85 8.19 17.91a22.28 22.28 0 0 1-2.09 7.29c-1.938 3.934 2.1 8.528 6.24 7.26l16.72-4.56a48.6 48.6 0 0 0 8.16.7c20.53 0 37.22-12.83 37.22-28.6S77.66.25 57.13.25ZM39 33.5a4.5 4.5 0 1 1 4.5-4.5 4.5 4.5 0 0 1-4.5 4.5Zm18 0a4.5 4.5 0 1 1 4.5-4.5 4.5 4.5 0 0 1-4.5 4.5Zm18 0a4.5 4.5 0 1 1 4.5-4.5 4.5 4.5 0 0 1-4.5 4.5ZM125 82h-4a3 3 0 0 0-3 3v41.5a1.5 1.5 0 0 0 1.5 1.5h7a1.5 1.5 0 0 0 1.5-1.5V85a3 3 0 0 0-3-3ZM3 128h5.5a1.5 1.5 0 0 0 1.5-1.5V85a3 3 0 0 0-3-3H3a3 3 0 0 0-3 3v40a3 3 0 0 0 3 3ZM44 103.233v.758a1.5 1.5 0 0 0 1.417 1.5l6.5.362A7.5 7.5 0 0 1 59 113.338 1.518 1.518 0 0 0 60.5 115h7a1.518 1.518 0 0 0 1.5-1.662 7.5 7.5 0 0 1 7.086-7.488l6.5-.362a1.5 1.5 0 0 0 1.417-1.5v-.758a20 20 0 0 0-40 0Z" fill="#cecfd1" opacity="1" data-original="#000000" class=""></path><path d="M115 93a1.494 1.494 0 0 0-.55-1.16A17.057 17.057 0 0 0 103.5 88c-12.072 0-13.429 14.306-13.557 18.69a1.5 1.5 0 0 1-1.417 1.473l-12.275.682A4.576 4.576 0 0 0 72 113.338 1.538 1.538 0 0 0 73.5 115H94a6.006 6.006 0 0 1 6 6v5.5a1.5 1.5 0 0 0 1.5 1.5h12a1.5 1.5 0 0 0 1.5-1.5ZM13 93v33.5a1.5 1.5 0 0 0 1.5 1.5h12a1.5 1.5 0 0 0 1.5-1.5V121a6.006 6.006 0 0 1 6-6h20.5a1.538 1.538 0 0 0 1.5-1.662 4.577 4.577 0 0 0-4.25-4.493l-12.276-.682a1.5 1.5 0 0 1-1.417-1.473C37.929 102.306 36.573 88 24.5 88a17.062 17.062 0 0 0-10.951 3.842A1.5 1.5 0 0 0 13 93Z" fill="#cecfd1" opacity="1" data-original="#000000" class=""></path><path d="M97 126.5V121a3 3 0 0 0-3-3H34a3 3 0 0 0-3 3v5.5a1.5 1.5 0 0 0 1.5 1.5h63a1.5 1.5 0 0 0 1.5-1.5Z" fill="#cecfd1" opacity="1" data-original="#000000" class=""></path></g></g></svg>