<svg xmlns="http://www.w3.org/2000/svg" version="1.1" xmlns:xlink="http://www.w3.org/1999/xlink" width="512" height="512" x="0" y="0" viewBox="0 0 503.303 503.303" style="enable-background:new 0 0 512 512" xml:space="preserve"><g><path d="M317.684 135.826c18.111 0 34.726-11.714 40.791-28.789 6.133-17.265.432-37.017-13.901-48.398-14.353-11.397-34.982-12.409-50.374-2.447-15.346 9.933-22.909 28.971-18.541 46.731 4.31 17.514 19.624 30.839 37.565 32.675 1.481.153 2.97.228 4.46.228zM450.886 243.572c8.98 0 17.565-4.444 22.766-11.765 5.273-7.424 6.576-17.219 3.435-25.769-3.054-8.31-10.088-14.831-18.609-17.234-8.757-2.47-18.39-.438-25.392 5.369-6.956 5.767-10.729 14.719-10.018 23.726.705 8.898 5.792 17.077 13.433 21.683a27.94 27.94 0 0 0 14.385 3.99z" fill="#cecfd1" opacity="1" data-original="#000000"></path><path d="M503.282 332.769c-.021-3.182.063-6.366-.112-9.545-.179-3.244-.488-6.479-.765-9.718-.546-6.404-2.084-12.688-3.602-18.916-.76-3.11-1.91-6.261-3.079-9.242a70.97 70.97 0 0 0-4.076-8.682c-3.083-5.521-6.577-10.664-11.011-15.206-2.941-3.014-6.211-5.62-9.632-8.059-2.679-1.908-5.469-3.677-8.477-5.022-3.469-1.551-7.208-2.508-11.021-2.532-4.657-.029-9.188 1.351-13.244 3.588-3.443 1.899-6.359 4.429-9.377 6.917-3.12 2.57-6.34 5.019-9.648 7.342-6.038 4.241-12.834 8.857-20.249 10.136.132-13.097-.249-26.291-2.229-39.253-.973-6.36-2.005-12.801-3.654-19.025-1.626-6.139-3.543-12.141-5.854-18.061-4.339-11.114-10.012-21.553-17.612-30.782-6.819-8.279-14.945-15.516-24.202-20.967-10.021-5.9-21.427-9.503-33.146-8.285-11.331 1.178-21.236 7.098-30.146 13.863-12.393 9.41-22.752 21.518-29.917 35.344-7.488-18.776-20.322-35.944-37.94-46.263-9.682-5.67-20.917-9.606-32.213-9.762-11.894-.165-23.754 3.942-33.892 9.972-20.059 11.931-33.539 32.2-40.536 54.127-7.348 23.023-8.255 47.768-6.295 71.697.192 2.35.414 4.696.664 7.041-5.769-1.399-11.159-4.537-16.117-7.7-5.278-3.367-10.556-6.972-15.211-11.166-3.89-3.504-8.604-6.083-13.825-6.839-4.061-.589-8.188-.068-12.092 1.132-21.281 6.546-35.32 26.732-40.576 47.558-1.581 6.266-2.846 12.543-3.445 18.985C.145 321.97.047 328.449 0 334.998c-.018 2.483.375 4.708 2.061 6.639 1.492 1.709 3.652 2.782 5.927 2.862 4.659.163 8.122-3.533 8.57-7.97.563-5.568 1.054-11.124 2.06-16.633 1.04-5.693 2.509-11.18 4.406-16.645l-1.614 29.814-.205 3.794a31.472 31.472 0 0 0 2.459 13.961c.222.521.882 1.399.91 1.947l.273 5.279 1.641 31.688 1.965 37.938c.226 4.362.451 8.727.678 13.09.1 1.935.04 3.973.373 5.89.777 4.475 4.792 7.974 9.343 8.071 4.606.098 8.779-3.315 9.673-7.822.459-2.312.337-4.836.45-7.176l1.683-34.777 1.474-30.438.096-1.979 1.14 22.014 1.957 37.797.6 11.575c.033.64.051 1.281.104 1.918.385 4.53 4.106 8.34 8.625 8.834 4.594.505 9.021-2.556 10.304-6.973.302-1.041.358-2.083.41-3.151l.439-9.089 1.706-35.254 1.726-35.657.464-9.592c.037-.77.02-1.177.379-1.859a31.281 31.281 0 0 0 3.541-16.221l-1.494-27.598-1.204-22.228c5.635 2.257 11.787 4.303 17.862 4.881 3.08.293 6.302.349 9.347-.284 1.414-.294 2.853-.698 4.185-1.262.343-.145.677-.309 1.007-.479a12.294 12.294 0 0 0 2.754.113c4.426-.313 8.48-3.046 10.511-6.978 1.072-2.075 1.462-4.32 1.364-6.639a281.005 281.005 0 0 1-.239-9.179c-.114-12.078.601-24.202 2.746-36.102 2.156-11.958 5.701-23.863 11.647-34.512l-2.535 20.937-4.613 38.088-1.682 13.888c-.386 3.187-.823 6.354-.862 9.571a50.155 50.155 0 0 0 2.673 16.79 48.914 48.914 0 0 0 3.456 7.813 48.357 48.357 0 0 0 2.148 3.528c.186.275.188.181.196.341l.208 4.398 1.203 25.356 1.786 37.664 1.813 38.25 1.286 27.115.271 5.718c.302 6.362 4.513 12.023 10.669 13.885 9.01 2.725 18.543-4.176 18.963-13.541l.212-4.719c.44-9.818.881-19.636 1.32-29.455l1.751-39.045 1.262-28.121.162-3.626c.262 5.605.522 11.212.783 16.818l1.713 36.775 1.688 36.211.534 11.481c.104 2.221.066 4.542.641 6.702 2.436 9.167 13.192 13.938 21.515 9.244 4.783-2.698 7.418-7.585 7.664-12.972l.844-18.47 1.588-34.769c.6-13.134 1.199-26.269 1.8-39.401l1.479-32.377.625-13.688c.01-.196.433-.667.541-.839a49.752 49.752 0 0 0 3.03-5.537 49.026 49.026 0 0 0 2.88-7.849 49.123 49.123 0 0 0 1.543-17.063c-.207-2.434-.557-4.86-.851-7.285-1.367-11.292-2.734-22.585-4.103-33.877l-3.965-32.738-.518-4.274c5.556 10.266 8.989 21.555 11.035 33.013 2.077 11.628 2.88 23.488 2.606 35.287-.074 3.212-.005 6.426.026 9.639-.072 2.109-.025 4.113.715 6.126 1.563 4.25 5.374 7.522 9.857 8.275 4.504.756 9.178-1.062 12.115-4.529 3.415-4.029 3.167-9.314 3.576-14.291.786-9.553 2.335-19.086 4.522-28.413 2.155-9.189 4.879-18.354 8.89-26.919v7.296c0 .962.146 2.018-.053 2.967l-1.248 5.998-6.078 29.212-7.993 38.414c-2.158 10.37-4.314 20.74-6.474 31.11l-1.594 7.659c-.133.639-.279 1.271-.33 1.922-.381 4.877 3.604 9.013 8.442 9.013h15.517l2.515.025s.071 1.627.107 2.367c.441 9.153.886 18.309 1.327 27.461a531553.97 531553.97 0 0 1 3.135 64.759l.075 1.571c.198 4.103 2.199 7.993 5.309 10.653 3.489 2.986 8.237 4.271 12.744 3.303 4.383-.941 8.202-3.913 10.261-7.888 1.501-2.901 1.629-5.902 1.791-9.046l.593-11.438c.635-12.246 1.269-24.49 1.902-36.736l1.805-34.842c.157-3.022.312-6.047.47-9.069.03-.573-.185-1.119.442-1.119 1.353 0 1.307-.239 1.36.893.39 8.017.776 16.031 1.164 24.047l1.876 38.771c.47 9.686.938 19.371 1.406 29.057.137 2.818.153 5.576 1.249 8.249 3.619 8.826 14.769 12.24 22.565 6.629 3.666-2.639 6.062-6.869 6.298-11.396.026-.439.046-.878.067-1.317l.486-9.392 1.818-35.119a470874.258 470874.258 0 0 0 2.47-47.673c.042-.82.127-2.708.127-2.708s12.411-.037 17.521-.037c5.225 0 9.224-4.875 8.23-10.001-.065-.363-.146-.724-.221-1.084-1.474-7.231-2.945-14.462-4.418-21.694l-7.533-36.993-7.263-35.663-3.605-17.703c-.169-.832-.029-1.792-.029-2.635v-5.963c2.464 5.846 4.362 11.851 6.01 17.973 1.695 6.311 3.107 12.682 4.051 19.152a313.703 313.703 0 0 1 2.22 19.358c.194 2.347.291 4.653 1.258 6.842a13.047 13.047 0 0 0 4.132 5.154c2.464 1.836 5.552 2.771 8.621 2.543.877-.065 1.528.594 2.304 1.005.893.475 1.825.872 2.781 1.201a22.022 22.022 0 0 0 6.159 1.172c8.529.397 17.008-2.376 24.747-5.74l-.014 18.764-7.659 32.564-7.843 33.339c-.616 2.621-2.005 6-.576 8.546 1.674 2.982 4.789 2.729 7.69 2.729h8.98c.104 0 1.253-.047 1.257.029.013.247.023.494.035.741l.199 4.107.756 15.632 1.755 36.269c.125 2.582-.021 5.375.489 7.925.893 4.455 4.986 7.86 9.544 7.838 4.604-.023 8.695-3.534 9.473-8.063.437-2.535.338-5.238.471-7.798l.863-16.693c.607-11.739 1.217-23.479 1.823-35.219l.21-4.045c.013-.234.024-.469.036-.703-.003.06.958-.25.976.098.142 2.917.281 5.834.424 8.751.598 12.365 1.195 24.73 1.795 37.096.229 4.75.46 9.499.688 14.249l.145 2.966a9.892 9.892 0 0 0 4.842 8.031c4.021 2.372 9.211 1.404 12.206-2.147 1.521-1.802 2.181-3.965 2.301-6.277l.546-10.538 1.941-37.506.667-12.865c.005-.101.077-1.876.102-1.876h7.147c2.427 0 5.703.515 7.811-.943 2.039-1.41 2.564-3.771 2.064-6.056l-2.091-9.564c-2.649-12.117-5.3-24.235-7.948-36.352-1.77-8.085-5.516-24.414-5.516-24.414l.018-6.208c5.259 11.762 6.726 24.753 8.002 37.428.213 2.112.717 4.016 2.177 5.636 1.506 1.671 3.667 2.708 5.92 2.78 4.588.146 8.54-3.75 8.516-8.329l-.02-3.394z" fill="#cecfd1" opacity="1" data-original="#000000"></path><path d="M52.407 243.572c8.981 0 17.567-4.443 22.768-11.765 5.272-7.424 6.575-17.219 3.434-25.769-3.054-8.31-10.087-14.831-18.61-17.234-8.757-2.47-18.388-.438-25.39 5.369-6.956 5.767-10.73 14.719-10.018 23.726.705 8.898 5.792 17.077 13.433 21.683a27.936 27.936 0 0 0 14.383 3.99zM181.604 128.256c18.138 0 34.726-11.88 40.545-29.067 5.881-17.37-.267-37.044-14.935-48.018-14.693-10.993-35.415-11.25-50.374-.619-14.929 10.609-21.55 30.111-16.112 47.617 5.374 17.304 21.642 29.604 39.75 30.072.376.011.751.015 1.126.015z" fill="#cecfd1" opacity="1" data-original="#000000"></path></g></svg>