<svg xmlns="http://www.w3.org/2000/svg" version="1.1" xmlns:xlink="http://www.w3.org/1999/xlink" width="512" height="512" x="0" y="0" viewBox="0 0 64 64" style="enable-background:new 0 0 512 512" xml:space="preserve" class=""><g><path d="M9.45 25.43a5.3 5.3 0 1 0-5.3-5.3 5.31 5.31 0 0 0 5.3 5.3zM22.39 43.17a2.79 2.79 0 0 0-2.86-2.3l-3.78.13-.6-6.84c2.1 1.08 5.35 1.56 9.13 1.33a2.33 2.33 0 0 0-.15-4.66h-2a12.16 12.16 0 0 1-6.24-1.72l-2.78-1.67a7.77 7.77 0 0 0-3.53-1.15A4.53 4.53 0 0 0 4.44 30a8.34 8.34 0 0 0-.09 3.4l1.4 8.88A5.53 5.53 0 0 0 11.24 47h5.92a.5.5 0 0 1 .5.42l2.16 11.7a2.68 2.68 0 0 0 1.23 1.79 2.73 2.73 0 0 0 1.4.39 2.78 2.78 0 0 0 .75-.11 2.65 2.65 0 0 0 1.86-3z" fill="#cecfd1" opacity="1" data-original="#000000" class=""></path><path d="M2.9 62.28a1.59 1.59 0 0 1-.43-.06 1.49 1.49 0 0 1-1-1.85l3.14-10.55a7.74 7.74 0 0 1-3.1-4.92C-.68 32.79-.94 31.44-1 31.32a1.5 1.5 0 0 1 1.18-1.77h.31A1.5 1.5 0 0 1 2 30.69c.12.54 1.78 9.74 2.49 13.68a4.79 4.79 0 0 0 4.67 3.93h6.71a1.5 1.5 0 0 1 0 3h-.76l2.21 8.9a1.49 1.49 0 0 1-1.09 1.8 1.59 1.59 0 0 1-.36 0 1.48 1.48 0 0 1-1.45-1.13L12 51.29H9.16a7.33 7.33 0 0 1-1.8-.22l-3 10.15a1.49 1.49 0 0 1-1.46 1.06zM54.54 25.43a5.3 5.3 0 1 0-5.29-5.3 5.3 5.3 0 0 0 5.29 5.3zM58.26 42.28l1.41-9a8.2 8.2 0 0 0 0-2.61c-.51-3-2.34-4.59-5.24-4.41a7.73 7.73 0 0 0-3.53 1.15l-2.78 1.67a12.15 12.15 0 0 1-6.25 1.72h-2a2.33 2.33 0 0 0-.14 4.66c3.77.23 7-.25 9.11-1.32L48.17 41l-3.7-.14a2.78 2.78 0 0 0-2.85 2.3l-2.69 15a2.66 2.66 0 0 0 1.87 3 2.74 2.74 0 0 0 .76.11 2.82 2.82 0 0 0 1.4-.39 2.71 2.71 0 0 0 1.23-1.79l2.14-11.7a.52.52 0 0 1 .51-.42h5.91a5.56 5.56 0 0 0 5.51-4.69z" fill="#cecfd1" opacity="1" data-original="#000000" class=""></path><path d="M61.1 62.28a1.47 1.47 0 0 1-1.43-1.06l-3-10.15a7.33 7.33 0 0 1-1.8.22H52l-2.38 9.62A1.48 1.48 0 0 1 48.13 62a1.45 1.45 0 0 1-.35 0 1.49 1.49 0 0 1-1.1-1.81l2.21-8.9h-.76a1.5 1.5 0 0 1 0-3h6.71a4.79 4.79 0 0 0 4.72-3.94c.39-2.18 2.36-13.09 2.49-13.67a1.49 1.49 0 0 1 1.46-1.18 1.1 1.1 0 0 1 .31 0A1.49 1.49 0 0 1 65 31.32c-.08.34-1.09 5.93-2.48 13.58a7.78 7.78 0 0 1-3.1 4.92l3.14 10.55a1.49 1.49 0 0 1-1 1.85 1.47 1.47 0 0 1-.46.06zM31.85 61.39h-3.92a1.5 1.5 0 1 1 0-3h2.58V39.83H18a1.49 1.49 0 0 1 0-3h28a1.49 1.49 0 1 1 0 3H33.49V58.4H36a1.5 1.5 0 0 1 0 3h-4.15zM40.78 2.72H23.22a1 1 0 0 0-.95.95v11.69a1 1 0 0 0 .95.95H32l4.62 4.61a.49.49 0 0 0 .35.15.41.41 0 0 0 .16 0 .51.51 0 0 0 .33-.39l.65-4.34h2.7a1 1 0 0 0 .95-.95V3.67a1 1 0 0 0-.98-.95zm-3.12 12.61a.49.49 0 0 0-.49.41l-.57 3.8-4.08-4.07a.5.5 0 0 0-.35-.14h-8.92V3.67h17.53v11.66z" fill="#cecfd1" opacity="1" data-original="#000000" class=""></path><path d="M40.75 3.67H23.22v11.66h8.92a.5.5 0 0 1 .35.14l4.08 4.07.57-3.8a.49.49 0 0 1 .49-.41h3.12zM37.44 13H26.55a.5.5 0 0 1 0-1h10.89a.5.5 0 0 1 0 1zm0-2.95H26.55a.48.48 0 0 1-.49-.49.5.5 0 0 1 .49-.56h10.89a.49.49 0 0 1 .49.49.48.48 0 0 1-.49.51zm0-2.93H26.55a.5.5 0 0 1 0-1h10.89a.5.5 0 0 1 0 1z" fill="#cecfd1" opacity="1" data-original="#000000" class=""></path></g></svg>