<svg xmlns="http://www.w3.org/2000/svg" version="1.1" xmlns:xlink="http://www.w3.org/1999/xlink" width="512" height="512" x="0" y="0" viewBox="0 0 2048 2048" style="enable-background:new 0 0 512 512" xml:space="preserve" fill-rule="evenodd" class=""><g><g fill="none"><path d="M0 0h2048v2048H0z" fill="" opacity="1"></path><path d="M255.999 255.999h1536v1536h-1536z" fill="" opacity="1"></path><path d="M255.999 255.999h1536v1536h-1536z" fill="" opacity="1"></path><path d="M255.999 255.999h1536v1536h-1536z" fill="" opacity="1"></path></g><path fill="#cecfd1" d="m318.154 1263.76 116.967 2.326 163.59-163.448 129.691 129.699c33.906-43.6 75.586-80.14 124.021-108.143l8.51-4.844 6.672 7.012-28.708-121.487c-23.444 5.976-47.805 9.056-72.672 9.056-80.851 0-156.272-32.491-212.38-91.307l-6.672-7.01-8.51 4.833c-118.681 68.625-196.734 188.515-219.664 337.89l-.844 5.423zm448.07-309.853c-147.051 0-266.692-119.649-266.692-266.724 0-147.175 119.641-266.816 266.692-266.816 127.298 0 234.043 89.642 260.433 209.11-111.546 38.484-206.072 169.492-207.083 319.049a266.6 266.6 0 0 1-53.35 5.381z" opacity="1" data-original="#424242" class=""></path><path fill="#cecfd1" d="M955.325 1790.18h835.799c10.114-222.89-67.309-413.606-275.299-533.736l-10.622-6.144-8.632 8.896c-71.183 74.617-166.87 115.844-269.471 115.844-102.575 0-198.254-41.226-269.445-115.844l-8.467-8.896-10.788 6.144c-44.04 25.46-82.216 54.102-114.977 85.538l139.543 139.543H744.6c9.878 106.037 49.298 193.407 143.056 260.347l67.67 48.308zm271.775-491.291c-186.562 0-338.348-151.795-338.348-338.384 0-186.719 151.786-338.497 338.348-338.497 186.588 0 338.383 151.778 338.383 338.339 0 186.588-151.794 338.542-338.383 338.542z" opacity="1" data-original="#424242" class=""></path><path fill="#cecfd1" d="m579.436 1214.63-234.242 223.734h133.762c33.497 223.938 200.757 319.788 368.016 351.811-117.121-79.952-170.519-191.916-170.519-351.811h137.023z" opacity="1" data-original="#64b5f6" class=""></path></g></svg>