<svg xmlns="http://www.w3.org/2000/svg" version="1.1" xmlns:xlink="http://www.w3.org/1999/xlink" width="512" height="512" x="0" y="0" viewBox="0 0 228.578 228.578" style="enable-background:new 0 0 512 512" xml:space="preserve"><g><path d="M219.17 95.17c-.995 0-2.017.143-3.036.423l-11.535 3.178-11.979-29.18c-3.394-8.266-13.425-14.992-22.36-14.992h-30.554c-1.052-13.106-12.045-23.451-25.417-23.451-13.372 0-24.365 10.345-25.417 23.451H58.156c-8.937 0-18.967 6.726-22.359 14.992l-11.962 29.14-11.391-3.138a11.438 11.438 0 0 0-3.036-.423C3.957 95.17 0 99.335 0 105.073v6.802c0 6.698 5.449 12.147 12.147 12.147h1.305l-1.933 4.708C8.366 136.41 5.8 149.413 5.8 157.715v57.969c0 6.698 5.449 12.147 12.147 12.147h15.866c6.698 0 12.147-5.449 12.147-12.147v-14.477h136.494v14.477c0 6.698 5.449 12.147 12.148 12.147h15.865c6.698 0 12.147-5.449 12.147-12.147v-57.969c0-8.302-2.565-21.305-5.719-28.985l-1.933-4.708h1.466c6.698 0 12.147-5.449 12.147-12.147v-6.802c.003-5.738-3.954-9.903-9.405-9.903zM32.545 117.424l18.119-44.137c2.03-4.944 8.063-8.99 13.408-8.99h100.272c5.345 0 11.379 4.045 13.408 8.99l18.12 44.137c2.029 4.944-.683 8.99-6.027 8.99H38.572c-5.344 0-8.057-4.045-6.027-8.99zm40.448 55.826a4.874 4.874 0 0 1-4.859 4.859h-34.42a4.873 4.873 0 0 1-4.859-4.859v-16.52a4.874 4.874 0 0 1 4.859-4.859h34.42a4.873 4.873 0 0 1 4.859 4.859v16.52zm126.243 0c0 2.672-2.186 4.859-4.858 4.859h-34.422a4.872 4.872 0 0 1-4.858-4.859v-16.52c0-2.672 2.187-4.859 4.858-4.859h34.422c2.672 0 4.858 2.187 4.858 4.859v16.52zM114.208 21.491a4 4 0 0 0 4-4V4.746a4 4 0 0 0-8 0v12.745a4 4 0 0 0 4 4zM79.953 21.071l10.006 6.741a3.995 3.995 0 0 0 5.552-1.083 4 4 0 0 0-1.082-5.552l-10.006-6.741a4 4 0 1 0-4.47 6.635zM136.226 28.495a3.98 3.98 0 0 0 2.231-.683l10.006-6.741a4 4 0 0 0-4.471-6.635l-10.006 6.741a4 4 0 0 0 2.24 7.318z" fill="#cecfd1" opacity="1" data-original="#000000"></path></g></svg>