<svg xmlns="http://www.w3.org/2000/svg" version="1.1" xmlns:xlink="http://www.w3.org/1999/xlink" width="512" height="512" x="0" y="0" viewBox="0 0 24 24" style="enable-background:new 0 0 512 512" xml:space="preserve"><g><path fill="#cecfd1" fill-rule="evenodd" d="M1.25 11.567C1.25 5.838 6.095 1.25 12 1.25s10.75 4.588 10.75 10.317c0 5.728-4.845 10.316-10.75 10.316-.696.001-1.39-.063-2.073-.191a11.539 11.539 0 0 0-.5-.088.35.35 0 0 0-.2.035c-.114.054-.266.135-.5.26a7.249 7.249 0 0 1-4.713.731.75.75 0 0 1-.445-1.21c.468-.576.79-1.269.932-2.015.038-.205-.049-.484-.316-.756-1.815-1.843-2.935-4.335-2.935-7.082zM11 9.258c0-.301.323-.758 1-.758s1 .457 1 .758c0 .122-.04.244-.124.36-.114.155-.26.322-.446.524l-.089.097c-.155.169-.332.362-.494.557-.37.448-.847 1.121-.847 1.979v.44a1 1 0 1 0 2 0v-.44c0-.114.067-.316.388-.704.125-.151.26-.298.415-.466l.103-.112c.186-.204.4-.441.584-.694a2.6 2.6 0 0 0 .51-1.54C15 7.617 13.532 6.5 12 6.5S9 7.618 9 9.258a1 1 0 1 0 2 0zm1 6.242a1 1 0 1 0 0 2h.012a1 1 0 1 0 0-2z" clip-rule="evenodd" opacity="1" data-original="#000000"></path></g></svg>