<svg xmlns="http://www.w3.org/2000/svg" version="1.1" xmlns:xlink="http://www.w3.org/1999/xlink" width="512" height="512" x="0" y="0" viewBox="0 0 512 512" style="enable-background:new 0 0 512 512" xml:space="preserve" class=""><g><path d="M491.462 371.612c-8.397 3.375-23.632 4.27-23.972 15.975-.35 12.036 2.636 40.486 2.636 54.343-.002 26.664-22.543 26.938-48.86 24.665-14.506-1.922-25.994-4.069-35.953-6.666-12.749 13.047-20.93 25.927-28.451 41.103H214.673c15.458-35.989 25.925-88.335-4.143-141.338-23.339-41.141-36.985-85.084-25.091-128.141 1.08-3.909 4.512-6.522 8.568-6.522h16.337a110.863 110.863 0 0 0 4.015 33.647c14.358 51.527 60.27 89.146 114.236 89.146.697 0 1.394-.009 2.09-.022 50.298-.918 94.346-33.298 107.618-82.219 3.764-13.874 4.579-27.552 2.766-40.552h26.578a8.832 8.832 0 0 1 8.765 7.41c1.7 10.075 1.922 20.782.4 32.07-1.761 13.049-8.987 23.093-8.704 34.158.184 7.258 10.6 20.867 25.059 42.997 12.309 19.069 8.988 25.646-1.706 29.945zM157.016 172.404a125.764 125.764 0 0 0-26.693 11.549c-18.87 10.894-33.835 25.952-44.414 43.341 20.349-.467 40.872-5.899 59.741-16.794 16.121-9.307 29.392-21.655 39.513-35.898l17.123 29.658a7.967 7.967 0 0 0 13.813-7.937l-17.139-29.685c17.395-1.644 34.724-6.964 50.845-16.271 18.87-10.894 33.835-25.952 44.414-43.341-20.348.467-40.871 5.899-59.741 16.793a125.85 125.85 0 0 0-23.349 17.343c7.706-12.635 13.758-26.569 17.783-41.589 7.127-26.6 7.045-53.43.96-78.424-17.767 18.602-31.254 41.797-38.381 68.396-3.735 13.937-5.488 27.938-5.438 41.705-4.086-18.279-10.976-36.256-20.836-53.334-16.422-28.443-39.12-51.002-65.331-66.949.704 30.673 8.892 61.609 25.314 90.053 9.86 17.078 21.983 32.033 35.769 44.71-11.896-6.927-24.898-12.408-38.835-16.142-26.599-7.127-53.43-7.045-78.424-.959 18.603 17.767 41.798 31.253 68.397 38.381 15.02 4.024 30.113 5.75 44.908 5.394zm262.604-3.655a7.987 7.987 0 0 0 5.781-2.474l34.3-35.789a7.983 7.983 0 0 0 1.928-7.685 7.993 7.993 0 0 0-5.631-5.573l-12.487-3.351 13.982-14.58c3.047-3.187 2.936-8.249-.241-11.306-3.191-3.062-8.264-2.956-11.32.236l-23.331 24.343a8.025 8.025 0 0 0-1.929 7.69 8.031 8.031 0 0 0 5.637 5.578l12.483 3.341-24.941 26.026c-3.057 3.192-2.951 8.264.241 11.311a7.955 7.955 0 0 0 5.53 2.232zm-73.03-70.07 12.487-3.341-8.587 35.008c-1.051 4.291 1.567 8.63 5.858 9.681a8.01 8.01 0 0 0 9.681-5.858l11.808-48.151a8.024 8.024 0 0 0-2.17-7.632 8.012 8.012 0 0 0-7.666-2.011l-12.483 3.351 4.812-19.618a7.995 7.995 0 0 0-5.873-9.672c-4.291-1.061-8.621 1.572-9.667 5.863l-8.042 32.752a8.016 8.016 0 0 0 2.179 7.618 7.992 7.992 0 0 0 7.661 2.01zm-74.565 91.787c-14.623 19.879-17.694 44.318-8.423 67.071 9.551 23.408 31.021 40.509 56.054 44.598 23.818 3.91 47.958-5.52 63.006-24.599 14.503-18.379 17.82-42.091 8.871-63.421-6.248-14.903-18.731-26.248-34.227-31.122-16.253-5.106-33.895-2.758-48.416 6.432-13.755 8.722-21.576 22.121-22.005 37.742-.492 17.67 10.448 35.1 27.226 43.378 16.123 7.96 34.184 5.13 46.001-7.198 11.402-11.88 13.601-29.01 5.622-43.624-.063-.096-.111-.188-.174-.289-5.27-8.746-15.458-12.839-25.38-10.187-9.908 2.661-16.697 11.311-16.875 21.518a7.991 7.991 0 0 0 7.849 8.143c4.387.048 8.056-3.433 8.138-7.854.092-4.667 3.872-6.036 5.029-6.345 1.152-.313 5.043-1.003 7.449 2.859 5.429 10.077 1.924 19.368-3.197 24.71-5.491 5.718-15.563 9.749-27.381 3.92-9.382-4.633-18.693-15.269-18.321-28.591.28-10.13 5.458-18.88 14.58-24.661 10.53-6.668 23.312-8.38 35.052-4.686 11.157 3.505 19.787 11.34 24.281 22.048 6.658 15.887 4.171 33.581-6.682 47.322-11.451 14.507-29.792 21.677-47.867 18.717-19.561-3.201-36.353-16.557-43.812-34.859-7.131-17.463-4.759-36.252 6.49-51.541 17.83-24.252 56.439-38.301 90.237-19.922 28.572 17.531 40.63 46.372 32.274 77.171-7.772 28.62-34.69 57.842-77.321 58.619-.501 0-1.003.01-1.509.01-38.402 0-72.572-26.836-83.401-65.725-6.35-22.762-2.208-46.903 11.34-66.251a8.02 8.02 0 0 0-1.972-11.152c-3.611-2.531-8.596-1.649-11.137 1.972-16.301 23.278-21.282 52.341-13.654 79.717 12.772 45.832 53.243 77.441 98.824 77.441.598 0 1.201-.01 1.798-.019 50.928-.931 83.14-36.03 92.47-70.412 10.188-37.559-4.961-73.999-39.54-95.121a8.95 8.95 0 0 0-.328-.188c-18.962-10.38-41.059-13.138-62.239-7.792-19.57 4.942-37.332 16.673-48.73 32.173zM163.38 421.322h-.948c-11.634 13.875-28.385 23.311-47.352 25.402v54.242h48.3c21.902 0 39.822-17.92 39.822-39.822s-17.92-39.822-39.822-39.822zm-111.652 0h-.948c-21.902 0-39.822 17.92-39.822 39.822s17.92 39.822 39.822 39.822h48.3v-54.242c-18.966-2.092-35.719-11.526-47.352-25.402zm-.853-46.357a55.955 55.955 0 0 0 11.208 33.683l78.679-78.68a55.955 55.955 0 0 0-33.683-11.208c-31.041 0-56.205 25.164-56.205 56.205zm112.409 0a55.955 55.955 0 0 0-11.208-33.683l-78.68 78.68a55.955 55.955 0 0 0 33.683 11.208c31.041 0 56.204-25.163 56.204-56.204z" fill="#cecfd1" opacity="1" data-original="#000000" class=""></path></g></svg>